<svg width="42" height="54" viewBox="0 0 42 54" fill="none" xmlns="http://www.w3.org/2000/svg">
<path d="M40.4269 45.257C40.2511 45.3347 40.0611 45.3748 39.869 45.3748C39.6768 45.3748 39.4868 45.3347 39.311 45.257L33.6747 42.7547L28.0438 45.257C27.8679 45.3349 27.6776 45.3751 27.4852 45.375C27.2927 45.3748 27.1025 45.3344 26.9266 45.2563L21.3011 42.7547L15.6762 45.2563C15.5004 45.3346 15.3101 45.3751 15.1176 45.3751C14.9251 45.3751 14.7348 45.3346 14.559 45.2563L8.9328 42.7547L3.30591 45.2563C3.13011 45.3346 2.93979 45.3751 2.74732 45.3751C2.55485 45.3751 2.36453 45.3346 2.18873 45.2563L0.6875 44.5888V49.5001C0.688694 50.5938 1.12367 51.6423 1.897 52.4156C2.67033 53.189 3.71885 53.6239 4.8125 53.6251H37.8125C38.9062 53.6239 39.9547 53.189 40.728 52.4156C41.5013 51.6423 41.9363 50.5938 41.9375 49.5001V44.5862L40.4269 45.257Z" fill="url(#paint0_linear_68_322)"/>
<path d="M40.21 13.1835L23.7107 1.39864C23.0112 0.898475 22.1729 0.629515 21.3129 0.629395C20.453 0.629274 19.6146 0.897997 18.915 1.39796L2.41498 13.1835L2.41431 13.1842C1.88076 13.5664 1.44586 14.0701 1.14559 14.6538C0.845317 15.2374 0.688292 15.8841 0.6875 16.5404V38.8297L2.74725 39.7456L8.37413 37.244C8.54994 37.1656 8.74026 37.1251 8.93273 37.1251C9.1252 37.1251 9.31552 37.1656 9.49132 37.244L15.1175 39.7456L20.7424 37.244C20.9182 37.1656 21.1085 37.1251 21.301 37.1251C21.4935 37.1251 21.6838 37.1656 21.8596 37.244L27.4852 39.7456L33.1161 37.2433C33.2919 37.1656 33.4821 37.1255 33.6743 37.1255C33.8666 37.1255 34.0567 37.1656 34.2326 37.2433L39.8689 39.7456L41.9374 38.827V16.5404C41.9366 15.8839 41.7795 15.2371 41.4791 14.6533C41.1787 14.0696 40.7437 13.5658 40.21 13.1835ZM21.3125 6.87514C22.2643 6.87514 23.1948 7.15739 23.9862 7.68619C24.7776 8.21499 25.3944 8.9666 25.7587 9.84597C26.1229 10.7253 26.2182 11.693 26.0325 12.6265C25.8468 13.56 25.3885 14.4175 24.7155 15.0906C24.0424 15.7636 23.1849 16.222 22.2514 16.4077C21.3178 16.5934 20.3502 16.4981 19.4708 16.1338C18.5915 15.7696 17.8399 15.1527 17.3111 14.3613C16.7822 13.5699 16.5 12.6395 16.5 11.6876C16.5015 10.4118 17.0091 9.18857 17.9113 8.28639C18.8134 7.3842 20.0366 6.87668 21.3125 6.87514ZM35.0625 33.0001H7.5625C7.19783 33.0001 6.84809 32.8553 6.59023 32.5974C6.33236 32.3395 6.1875 31.9898 6.1875 31.6251C6.1875 31.2605 6.33236 30.9107 6.59023 30.6529C6.84809 30.395 7.19783 30.2501 7.5625 30.2501H35.0625C35.4272 30.2501 35.7769 30.395 36.0348 30.6529C36.2926 30.9107 36.4375 31.2605 36.4375 31.6251C36.4375 31.9898 36.2926 32.3395 36.0348 32.5974C35.7769 32.8553 35.4272 33.0001 35.0625 33.0001ZM35.0625 24.7501H7.5625C7.19783 24.7501 6.84809 24.6053 6.59023 24.3474C6.33236 24.0895 6.1875 23.7398 6.1875 23.3751C6.1875 23.0105 6.33236 22.6607 6.59023 22.4029C6.84809 22.145 7.19783 22.0001 7.5625 22.0001H35.0625C35.4272 22.0001 35.7769 22.145 36.0348 22.4029C36.2926 22.6607 36.4375 23.0105 36.4375 23.3751C36.4375 23.7398 36.2926 24.0895 36.0348 24.3474C35.7769 24.6053 35.4272 24.7501 35.0625 24.7501Z" fill="url(#paint1_linear_68_322)"/>
<defs>
<linearGradient id="paint0_linear_68_322" x1="21.3125" y1="0.629395" x2="21.3125" y2="53.6251" gradientUnits="userSpaceOnUse">
<stop stop-color="#EEF2F5"/>
<stop offset="1" stop-color="#FAFBFC"/>
</linearGradient>
<linearGradient id="paint1_linear_68_322" x1="21.3125" y1="0.629395" x2="21.3125" y2="53.6251" gradientUnits="userSpaceOnUse">
<stop stop-color="#EEF2F5"/>
<stop offset="1" stop-color="#FAFBFC"/>
</linearGradient>
</defs>
</svg>
