<svg width="59" height="59" viewBox="0 0 59 59" fill="none" xmlns="http://www.w3.org/2000/svg">
<path d="M54.5 0.875H5C3.90598 0.875 2.85677 1.3096 2.08318 2.08318C1.3096 2.85677 0.875 3.90598 0.875 5V54.5C0.875 55.594 1.3096 56.6432 2.08318 57.4168C2.85677 58.1904 3.90598 58.625 5 58.625H54.5C55.594 58.625 56.6432 58.1904 57.4168 57.4168C58.1904 56.6432 58.625 55.594 58.625 54.5V5C58.625 3.90598 58.1904 2.85677 57.4168 2.08318C56.6432 1.3096 55.594 0.875 54.5 0.875ZM51.75 39.375H49V51.75C49 52.1147 48.8551 52.4644 48.5973 52.7223C48.3394 52.9801 47.9897 53.125 47.625 53.125H42.125C41.7603 53.125 41.4106 52.9801 41.1527 52.7223C40.8949 52.4644 40.75 52.1147 40.75 51.75V39.375H38C37.7546 39.375 37.5136 39.3093 37.3021 39.1847C37.0906 39.0601 36.9163 38.8812 36.7974 38.6666C36.6784 38.4519 36.619 38.2093 36.6255 37.9639C36.6319 37.7185 36.7039 37.4794 36.834 37.2712L43.709 26.2712C43.8408 26.0837 44.0158 25.9307 44.2192 25.825C44.4227 25.7194 44.6485 25.6642 44.8777 25.6642C45.107 25.6642 45.3328 25.7194 45.5362 25.825C45.7397 25.9307 45.9147 26.0837 46.0465 26.2712L52.9215 37.2712C53.0518 37.4798 53.1239 37.7194 53.1301 37.9653C53.1363 38.2111 53.0764 38.4541 52.9568 38.669C52.8372 38.8838 52.6621 39.0626 52.4498 39.1868C52.2376 39.311 51.9959 39.376 51.75 39.375V39.375Z" fill="url(#paint0_linear_68_305)"/>
<defs>
<linearGradient id="paint0_linear_68_305" x1="29.75" y1="0.875" x2="29.75" y2="58.625" gradientUnits="userSpaceOnUse">
<stop stop-color="#EEF2F5"/>
<stop offset="1" stop-color="#FAFBFC"/>
</linearGradient>
</defs>
</svg>
