<svg width="49" height="70" viewBox="0 0 49 70" fill="none" xmlns="http://www.w3.org/2000/svg">
<path d="M44.75 57.25H43.9717L42.022 28.65L45.9875 20.7396C46.0803 20.5481 46.1273 20.3378 46.125 20.125V2.25C46.125 1.88533 45.9801 1.53559 45.7223 1.27773C45.4644 1.01987 45.1147 0.875 44.75 0.875H35.125C34.7603 0.875 34.4106 1.01987 34.1527 1.27773C33.8949 1.53559 33.75 1.88533 33.75 2.25V7.75H31V2.25C31 1.88533 30.8551 1.53559 30.5973 1.27773C30.3394 1.01987 29.9897 0.875 29.625 0.875H20C19.6353 0.875 19.2856 1.01987 19.0277 1.27773C18.7699 1.53559 18.625 1.88533 18.625 2.25V7.75H15.875V2.25C15.875 1.88533 15.7301 1.53559 15.4723 1.27773C15.2144 1.01987 14.8647 0.875 14.5 0.875H4.875C4.51033 0.875 4.16059 1.01987 3.90273 1.27773C3.64486 1.53559 3.5 1.88533 3.5 2.25V20.125C3.4998 20.3383 3.54923 20.5487 3.64437 20.7396L7.603 28.65L5.65325 57.25H4.875C3.78098 57.25 2.73177 57.6846 1.95818 58.4582C1.1846 59.2318 0.75 60.281 0.75 61.375V68.25C0.75 68.6147 0.894865 68.9644 1.15273 69.2223C1.41059 69.4801 1.76033 69.625 2.125 69.625H47.5C47.8647 69.625 48.2144 69.4801 48.4723 69.2223C48.7301 68.9644 48.875 68.6147 48.875 68.25V61.375C48.875 60.281 48.4404 59.2318 47.6668 58.4582C46.8932 57.6846 45.844 57.25 44.75 57.25ZM43.2127 20.125L39.7752 27H9.84975L6.41225 20.125H43.2127ZM46.125 66.875H3.5V61.375C3.5 61.0103 3.64486 60.6606 3.90273 60.4027C4.16059 60.1449 4.51033 60 4.875 60H44.75C45.1147 60 45.4644 60.1449 45.7223 60.4027C45.9801 60.6606 46.125 61.0103 46.125 61.375V66.875Z" fill="url(#paint0_linear_68_315)"/>
<defs>
<linearGradient id="paint0_linear_68_315" x1="24.8125" y1="0.875" x2="24.8125" y2="69.625" gradientUnits="userSpaceOnUse">
<stop stop-color="#EEF2F5"/>
<stop offset="1" stop-color="#FAFBFC"/>
</linearGradient>
</defs>
</svg>
